<?xml version="1.0" standalone="no"?>
<!DOCTYPE svg PUBLIC "-//W3C//DTD SVG 20010904//EN"
 "http://www.w3.org/TR/2001/REC-SVG-20010904/DTD/svg10.dtd">
<svg version="1.0" xmlns="http://www.w3.org/2000/svg"
 width="245.000000pt" height="51.000000pt" viewBox="0 0 245.000000 51.000000"
 preserveAspectRatio="xMidYMid meet">

<g transform="translate(0.000000,51.000000) scale(0.100000,-0.100000)"
fill="#000000" stroke="none">
<path d="M100 434 c0 -4 16 -29 36 -56 l37 -50 -27 -25 c-50 -46 -60 -115 -26
-171 31 -51 72 -63 206 -60 l114 3 -56 80 -56 80 6 -47 c3 -28 1 -50 -5 -53
-18 -12 -111 7 -130 26 -41 41 -9 98 59 108 l42 6 -58 82 c-56 81 -58 83 -99
83 -24 0 -43 -3 -43 -6z"/>
<path d="M277 370 c26 -38 51 -70 56 -70 4 0 7 15 7 34 0 28 4 35 26 40 65 17
142 -30 128 -78 -9 -33 -43 -56 -81 -56 -19 0 -33 -4 -31 -8 2 -4 27 -42 57
-85 52 -73 57 -77 93 -77 21 0 38 3 38 8 -1 4 -16 30 -35 57 l-35 50 24 20
c34 29 46 57 46 108 0 30 -7 53 -22 72 -34 44 -75 55 -203 55 l-116 0 48 -70z"/>
<path d="M708 384 c-5 -4 -8 -63 -8 -131 0 -115 1 -123 19 -123 16 0 20 8 23
43 l3 42 46 3 c64 4 96 -10 104 -47 7 -34 34 -54 54 -41 11 6 11 15 1 45 -7
20 -18 39 -25 41 -9 4 -6 12 11 29 35 36 27 113 -15 131 -24 10 -205 17 -213
8z m177 -44 c22 -8 26 -15 23 -42 l-3 -33 -82 -3 -83 -3 0 39 c0 21 3 42 7 45
10 11 108 8 138 -3z"/>
<path d="M1003 383 c-17 -6 -16 -145 0 -193 29 -86 189 -94 231 -11 22 42 23
196 1 205 -20 7 -22 -1 -28 -103 -6 -102 -17 -116 -88 -116 -69 0 -79 16 -79
121 0 81 -10 107 -37 97z"/>
<path d="M1324 376 c-17 -8 -34 -21 -38 -31 -12 -31 -6 -169 8 -188 38 -49
214 -49 252 0 7 10 14 37 14 61 l0 42 -65 0 c-51 0 -65 -3 -65 -15 0 -11 12
-15 45 -15 48 0 56 -11 31 -45 -10 -14 -30 -20 -79 -23 -87 -6 -107 12 -107
97 0 75 18 91 103 91 49 0 62 -4 81 -25 40 -43 73 -25 46 25 -20 38 -162 54
-226 26z"/>
<path d="M1597 384 c-4 -4 -7 -62 -7 -130 0 -102 3 -123 16 -128 20 -8 208 -8
228 0 9 3 16 12 16 20 0 10 -25 14 -107 16 l-108 3 0 35 0 35 98 5 c55 3 97 9
97 15 0 6 -42 12 -97 15 l-98 5 0 35 0 35 103 3 c91 2 103 5 100 20 -3 15 -19
17 -119 20 -63 1 -118 -1 -122 -4z"/>
</g>
</svg>
